<?xml version="1.0" standalone="no"?>
<!DOCTYPE svg PUBLIC "-//W3C//DTD SVG 20010904//EN"
 "http://www.w3.org/TR/2001/REC-SVG-20010904/DTD/svg10.dtd">
<svg version="1.0" xmlns="http://www.w3.org/2000/svg"
 width="390.000000pt" height="120.000000pt" viewBox="0 0 390.000000 120.000000"
 preserveAspectRatio="xMidYMid meet">

<g transform="translate(0.000000,120.000000) scale(0.100000,-0.100000)"
fill="#000000" stroke="none">
<path d="M486 1134 c-152 -37 -292 -149 -364 -292 -51 -103 -66 -173 -59 -287
26 -479 620 -701 961 -360 110 110 161 234 161 395 0 162 -49 282 -163 395
-137 138 -345 195 -536 149z m224 -14 c83 -13 212 -76 278 -135 280 -252 216
-708 -124 -875 -68 -33 -174 -60 -239 -60 -122 0 -269 58 -361 143 -262 238
-232 647 60 841 120 79 246 107 386 86z"/>
<path d="M462 1072 c-10 -7 -9 -16 2 -48 11 -28 15 -33 15 -16 1 23 15 30 26
12 3 -5 11 -10 18 -10 8 0 8 3 -1 12 -7 7 -12 22 -12 35 0 24 -22 31 -48 15z
m30 -17 c0 -5 -5 -11 -11 -13 -6 -2 -11 4 -11 13 0 9 5 15 11 13 6 -2 11 -8
11 -13z"/>
<path d="M591 1066 c-18 -21 -2 -46 28 -45 23 2 24 2 4 6 -27 5 -30 28 -5 42
15 9 15 10 1 11 -9 0 -22 -6 -28 -14z"/>
<path d="M662 1068 c-18 -18 -15 -36 7 -48 25 -13 31 -13 31 0 0 6 -6 9 -12 8
-7 -2 -14 7 -16 20 -2 12 2 22 8 22 7 0 10 -7 6 -15 -3 -9 0 -15 9 -15 20 0
19 26 -1 34 -20 8 -18 8 -32 -6z"/>
<path d="M550 1039 c0 -16 4 -28 9 -25 8 5 3 56 -5 56 -2 0 -4 -14 -4 -31z"/>
<path d="M772 1058 c-26 -26 -4 -78 32 -78 15 0 4 18 -14 23 -24 6 -25 20 -4
42 12 12 19 13 30 4 9 -7 14 -7 14 -1 0 9 -22 22 -39 22 -4 0 -12 -5 -19 -12z"/>
<path d="M365 1005 c-16 -12 -17 -14 -2 -9 19 7 23 -6 5 -24 -9 -9 -7 -13 6
-18 10 -4 24 -1 32 8 13 13 13 17 -3 37 -17 20 -20 21 -38 6z m31 -42 c-10
-10 -19 5 -10 18 6 11 8 11 12 0 2 -7 1 -15 -2 -18z"/>
<path d="M839 1004 c-14 -18 -3 -45 22 -51 8 -3 7 0 -3 7 -20 12 -22 19 -9 39
5 7 14 10 21 6 9 -6 9 -9 -1 -16 -11 -7 -10 -9 4 -9 20 0 22 11 5 28 -16 16
-23 15 -39 -4z"/>
<path d="M312 968 c-16 -16 -15 -33 2 -47 15 -12 46 -5 46 11 0 7 -5 6 -14 -1
-20 -17 -43 13 -26 34 15 18 9 20 -8 3z"/>
<path d="M907 962 c-24 -26 -21 -39 3 -17 25 22 36 14 20 -15 -16 -31 -6 -36
13 -6 15 22 15 25 -2 40 -16 15 -19 15 -34 -2z"/>
<path d="M270 923 c0 -5 9 -18 20 -28 11 -10 20 -14 20 -8 0 5 -9 18 -20 28
-11 10 -20 14 -20 8z"/>
<path d="M958 906 c-11 -15 -13 -27 -7 -37 7 -11 9 -11 9 4 0 10 8 21 18 25 9
4 18 13 20 20 4 20 -22 13 -40 -12z"/>
<path d="M240 895 c-11 -13 -10 -18 6 -30 28 -21 40 -18 20 4 -10 11 -15 25
-11 30 10 16 -1 13 -15 -4z"/>
<path d="M190 861 c0 -13 12 -27 30 -36 17 -9 30 -13 30 -11 0 3 -13 19 -30
36 -27 27 -30 28 -30 11z"/>
<path d="M993 873 c-19 -7 -16 -38 5 -54 14 -11 15 -11 5 1 -7 8 -13 21 -13
29 0 11 4 10 20 -4 18 -17 20 -17 26 0 10 24 -15 40 -43 28z m37 -24 c0 -6 -4
-7 -10 -4 -5 3 -10 11 -10 16 0 6 5 7 10 4 6 -3 10 -11 10 -16z"/>
<path d="M642 788 c-1 -37 -6 -69 -11 -72 -5 -4 -45 23 -89 59 -44 36 -82 65
-84 65 -3 0 -8 -42 -12 -92 -13 -170 -14 -176 -58 -206 -71 -49 -74 -53 -20
-27 l52 25 1 -27 c1 -27 1 -27 12 5 8 25 22 39 54 55 51 25 53 24 106 -65 30
-50 34 -63 29 -108 l-5 -50 32 0 c17 0 31 4 31 9 0 5 31 37 70 71 l70 62 37
-23 c21 -13 48 -29 61 -37 39 -25 24 -7 -39 46 l-61 52 -61 -50 c-34 -28 -67
-50 -73 -50 -12 0 -24 96 -24 199 0 49 4 67 18 77 16 13 16 14 -3 7 -18 -6
-18 -5 -6 10 12 15 12 17 -3 11 -28 -11 -18 4 21 31 21 14 34 25 29 25 -4 0
-21 -9 -36 -20 l-29 -21 -4 53 c-3 51 -3 50 -5 -14z m-13 -195 c-2 -23 -6 -43
-11 -43 -4 0 -20 24 -34 53 -15 28 -28 54 -30 56 -2 2 -22 -13 -45 -33 -51
-43 -62 -45 -55 -8 3 15 8 52 12 82 3 30 8 58 11 63 2 4 38 -23 79 -59 73 -65
75 -68 73 -111z"/>
<path d="M771 835 c-2 -11 -4 -30 -5 -42 -2 -13 1 -23 6 -23 4 0 8 6 8 14 0
20 40 16 40 -4 1 -16 29 28 29 45 0 6 -4 2 -10 -8 -13 -23 -32 -11 -23 15 4
14 2 18 -5 14 -6 -4 -11 -14 -11 -22 0 -23 -18 -16 -23 9 -4 20 -5 20 -6 2z"/>
<path d="M1033 807 c-13 -5 -23 -14 -23 -19 0 -5 10 -4 21 3 17 9 23 8 30 -2
5 -8 9 -9 9 -4 0 24 -15 32 -37 22z"/>
<path d="M865 797 c-25 -29 -26 -40 -2 -18 15 14 27 26 27 28 0 7 -16 1 -25
-10z"/>
<path d="M150 792 c0 -5 14 -21 30 -37 l30 -29 0 27 c0 18 5 27 16 27 8 0 12
5 9 10 -7 12 -85 14 -85 2z m50 -12 c0 -5 -4 -10 -10 -10 -5 0 -10 5 -10 10 0
6 5 10 10 10 6 0 10 -4 10 -10z"/>
<path d="M883 773 c-27 -18 -30 -35 -5 -26 15 6 15 5 3 -10 -12 -16 -12 -17 5
-10 17 6 17 5 5 -10 -12 -15 -12 -17 3 -11 10 4 15 13 12 20 -3 7 3 18 12 24
14 9 14 10 -5 5 -24 -7 -33 10 -10 18 6 2 10 7 7 10 -3 2 -15 -2 -27 -10z"/>
<path d="M796 723 c-3 -8 1 -10 11 -6 10 4 14 2 10 -4 -4 -6 -1 -14 5 -17 10
-5 10 -7 1 -12 -18 -8 -16 -25 2 -18 8 4 15 2 15 -4 0 -6 -6 -13 -12 -15 -7
-3 1 -6 17 -6 23 -1 27 2 15 9 -11 8 -12 12 -3 18 9 6 7 13 -8 26 -11 9 -18
23 -15 31 3 9 -2 13 -14 12 -11 -1 -22 -7 -24 -14z"/>
<path d="M757 710 c8 -9 9 -17 3 -25 -8 -9 -4 -11 15 -7 14 2 25 5 23 6 -2 1
-14 10 -28 21 -14 11 -19 13 -13 5z"/>
<path d="M894 688 c-5 -7 -3 -8 6 -3 10 6 12 4 7 -8 -5 -14 -1 -17 21 -16 17
1 20 3 10 6 -10 2 -18 8 -18 13 0 5 8 11 18 13 11 3 7 5 -10 6 -15 0 -30 -4
-34 -11z"/>
<path d="M765 660 c-3 -5 3 -10 15 -10 12 0 18 5 15 10 -3 6 -10 10 -15 10 -5
0 -12 -4 -15 -10z"/>
<path d="M905 640 c-3 -6 4 -9 19 -8 13 1 22 6 20 10 -7 11 -32 10 -39 -2z"/>
<path d="M760 630 c-11 -7 -6 -10 20 -10 26 0 31 3 20 10 -8 5 -17 10 -20 10
-3 0 -12 -5 -20 -10z"/>
<path d="M835 620 c-4 -6 3 -10 14 -10 25 0 27 6 6 13 -8 4 -17 2 -20 -3z"/>
<path d="M921 604 c0 -11 3 -14 6 -6 3 7 2 16 -1 19 -3 4 -6 -2 -5 -13z"/>
<path d="M762 601 c-9 -5 -4 -8 16 -7 17 1 28 4 25 9 -6 9 -25 9 -41 -2z"/>
<path d="M131 583 c-6 -12 -6 -25 0 -34 7 -11 9 -9 9 9 0 12 7 25 15 28 21 8
47 -15 40 -35 -5 -13 -4 -14 7 -3 18 18 -2 46 -35 50 -17 2 -29 -3 -36 -15z"/>
<path d="M771 576 c-9 -10 -6 -12 14 -8 29 5 31 8 11 15 -8 3 -19 0 -25 -7z"/>
<path d="M840 570 c0 -5 5 -10 11 -10 5 0 7 5 4 10 -3 6 -8 10 -11 10 -2 0 -4
-4 -4 -10z"/>
<path d="M1063 564 c-8 -21 19 -46 40 -38 11 4 16 16 16 33 -2 23 -2 24 -6 4
-4 -23 -43 -34 -43 -13 0 6 5 10 10 10 6 0 10 5 10 10 0 16 -20 12 -27 -6z"/>
<path d="M137 523 c-11 -10 -8 -41 4 -49 8 -4 9 0 4 15 -3 11 -2 21 3 21 13 0
24 -44 12 -48 -6 -2 -10 -8 -10 -13 0 -6 8 -6 19 1 14 7 22 7 26 -1 8 -12 8
-11 -20 -28 -18 -11 -17 -12 8 -6 32 6 35 -5 7 -23 -12 -7 -18 -18 -14 -24 4
-7 10 -5 16 6 10 17 38 22 38 7 0 -6 -10 -17 -22 -27 l-23 -16 26 6 c33 7 43
-3 24 -24 -13 -14 -13 -19 0 -36 14 -18 14 -18 9 2 -7 26 13 41 29 24 10 -10
8 -12 -7 -6 -16 5 -17 4 -6 -9 7 -8 16 -12 21 -9 14 8 11 32 -5 41 -19 11 -44
65 -38 82 3 9 0 11 -7 7 -7 -5 -16 4 -22 23 -6 17 -16 31 -21 31 -6 0 -5 6 2
15 10 12 10 18 0 30 -13 16 -42 20 -53 8z m48 -12 c3 -5 1 -12 -5 -16 -5 -3
-10 1 -10 9 0 18 6 21 15 7z"/>
<path d="M1060 510 c0 -4 9 -10 20 -13 30 -8 25 -30 -5 -25 -14 3 -25 2 -25
-2 0 -9 47 -19 55 -12 3 3 5 15 5 28 0 15 -7 23 -25 26 -14 3 -25 2 -25 -2z"/>
<path d="M1035 431 c-3 -12 -3 -25 0 -31 9 -15 45 -12 51 4 3 8 12 12 20 9 8
-3 14 -1 14 5 0 5 -11 13 -24 16 -13 3 -31 9 -39 12 -10 3 -18 -2 -22 -15z
m45 -17 c0 -9 -7 -14 -17 -12 -25 5 -28 28 -4 28 12 0 21 -6 21 -16z"/>
<path d="M1024 375 c11 -8 27 -15 35 -15 10 1 7 6 -9 15 -33 19 -50 18 -26 0z"/>
<path d="M982 341 c-17 -19 -22 -21 -18 -8 3 11 2 16 -4 12 -15 -10 -12 -22
12 -45 28 -26 47 -26 23 0 -22 24 -14 36 13 21 30 -16 37 -13 20 7 -9 9 -17
22 -19 28 -2 6 -14 -1 -27 -15z"/>
<path d="M916 292 c-2 -4 3 -24 11 -45 15 -38 16 -38 28 -15 6 13 17 22 23 21
7 -2 12 1 12 5 0 11 -68 43 -74 34z m44 -34 c0 -13 -23 -5 -28 10 -2 7 2 10
12 6 9 -3 16 -11 16 -16z"/>
<path d="M880 261 c0 -6 4 -13 10 -16 6 -3 7 1 4 9 -7 18 -14 21 -14 7z"/>
<path d="M293 244 c-3 -9 3 -24 13 -34 18 -17 20 -16 46 14 l26 32 -39 1 c-28
1 -42 -3 -46 -13z m47 -3 c0 -12 -26 -32 -33 -25 -9 10 4 34 19 34 8 0 14 -4
14 -9z"/>
<path d="M851 245 c0 -14 47 -70 53 -64 3 3 -8 21 -24 40 -16 19 -29 30 -29
24z"/>
<path d="M361 212 c-15 -28 -14 -39 5 -46 20 -8 44 10 44 32 0 12 -4 11 -16
-6 -19 -27 -39 -19 -23 9 6 12 8 23 6 26 -3 2 -10 -4 -16 -15z"/>
<path d="M813 194 c-9 -4 -9 -11 -1 -30 6 -13 15 -24 20 -24 5 0 4 8 -1 18 -7
13 -6 23 1 30 12 12 3 14 -19 6z"/>
<path d="M450 171 c0 -5 -3 -18 -6 -28 -5 -17 -5 -17 9 0 20 24 41 22 34 -3
-3 -11 -2 -22 3 -25 7 -4 25 44 18 50 -11 9 -58 14 -58 6z"/>
<path d="M785 158 c7 -35 -17 -38 -33 -5 -7 14 -11 17 -11 6 -1 -8 5 -23 12
-32 11 -16 15 -16 32 -3 16 12 17 17 7 37 -12 24 -12 24 -7 -3z"/>
<path d="M538 151 c10 -6 10 -10 -3 -21 -22 -18 -19 -30 8 -30 15 0 18 3 9 9
-10 6 -10 10 3 21 22 18 19 30 -7 30 -16 0 -19 -3 -10 -9z"/>
<path d="M628 152 c-14 -2 -18 -14 -18 -43 0 -22 5 -39 11 -39 8 0 10 12 6 35
-5 27 -2 35 10 35 12 0 14 -6 8 -27 -6 -26 -6 -27 12 -10 14 12 22 14 30 6 18
-18 45 -2 41 23 -3 26 -36 37 -49 17 -5 -9 -12 -10 -21 -3 -7 6 -21 9 -30 6z
m92 -23 c0 -24 -23 -21 -28 4 -2 10 3 17 12 17 10 0 16 -9 16 -21z"/>
<path d="M1771 796 c-31 -17 -50 -53 -51 -93 0 -26 -4 -33 -20 -33 -15 0 -20
-7 -20 -25 0 -18 5 -25 20 -25 19 0 20 -7 20 -145 l0 -145 25 0 25 0 0 145 0
145 45 0 c41 0 45 2 45 25 0 23 -4 25 -45 25 -43 0 -45 1 -45 30 0 39 38 65
81 56 28 -5 30 -4 27 22 -3 24 -8 27 -43 29 -22 2 -51 -3 -64 -11z"/>
<path d="M2172 798 c-15 -15 -16 -84 0 -94 14 -9 38 23 38 51 0 12 -6 29 -13
38 -10 14 -15 15 -25 5z"/>
<path d="M3262 798 c-15 -15 -16 -84 -2 -93 18 -11 40 16 40 50 0 38 -20 61
-38 43z"/>
<path d="M1396 598 c-32 -101 -65 -202 -72 -226 l-13 -42 29 0 c26 0 30 5 47
63 l19 62 84 0 84 0 19 -62 c18 -59 21 -63 49 -63 26 0 29 3 22 23 -6 19 -78
247 -120 380 -15 45 -17 47 -53 47 l-37 0 -58 -182z m130 12 l31 -100 -67 0
-67 0 31 100 c17 55 33 100 36 100 3 0 19 -45 36 -100z"/>
<path d="M2840 556 l0 -226 25 0 c25 0 25 1 25 90 l0 90 38 0 c36 0 41 -5 105
-90 58 -78 71 -90 97 -90 17 0 30 3 30 6 0 3 -32 46 -71 96 l-71 90 36 30 c63
52 70 141 14 195 -27 26 -35 28 -129 31 l-99 4 0 -226z m145 174 c48 -11 65
-32 65 -82 0 -60 -34 -88 -105 -88 l-55 0 0 83 c0 46 3 87 7 90 9 9 40 8 88
-3z"/>
<path d="M2314 666 c-64 -28 -100 -105 -91 -193 7 -67 32 -110 77 -134 42 -23
88 -24 135 -5 29 13 35 20 35 45 l0 31 -32 -20 c-86 -52 -158 -2 -158 110 0
112 63 158 153 110 l37 -20 0 30 c0 26 -6 33 -35 46 -42 17 -80 17 -121 0z"/>
<path d="M2555 671 c-24 -5 -31 -12 -33 -35 -3 -26 -1 -28 20 -22 95 26 158
11 158 -38 0 -21 -6 -24 -62 -30 -99 -10 -137 -43 -138 -119 0 -41 5 -53 29
-78 36 -35 90 -39 139 -9 26 16 32 17 32 5 0 -9 10 -15 25 -15 l25 0 0 141 c0
81 -5 149 -11 161 -21 40 -101 57 -184 39z m145 -209 c0 -57 -19 -80 -73 -89
-62 -10 -98 49 -59 96 15 19 35 26 125 40 4 0 7 -21 7 -47z"/>
<path d="M3401 658 c-60 -31 -81 -73 -81 -163 0 -113 48 -169 144 -169 68 0
96 16 96 55 l0 30 -26 -20 c-41 -32 -98 -28 -135 8 -26 26 -29 36 -29 91 0
122 68 174 158 120 l32 -20 0 30 c0 33 -15 43 -81 55 -25 4 -46 0 -78 -17z"/>
<path d="M3685 666 c-58 -26 -95 -90 -95 -165 0 -131 97 -205 220 -169 37 12
46 18 48 41 4 30 -2 32 -38 12 -14 -8 -44 -14 -67 -15 -57 0 -104 40 -106 90
l-2 35 114 3 114 3 -7 45 c-8 64 -32 103 -71 120 -42 17 -71 17 -110 0z m108
-55 c10 -9 19 -30 20 -47 l2 -29 -85 0 c-84 0 -85 0 -82 24 7 69 96 100 145
52z"/>
<path d="M1900 500 l0 -170 25 0 25 0 0 119 c0 117 1 120 26 140 15 12 41 21
60 21 31 0 34 3 34 30 0 24 -4 30 -22 30 -13 0 -38 -9 -56 -20 -40 -25 -42
-25 -42 0 0 15 -7 20 -25 20 l-25 0 0 -170z"/>
<path d="M2131 649 c-23 -24 -44 -79 -32 -79 5 0 12 11 15 25 4 14 11 25 16
25 12 0 13 13 -10 -108 -11 -56 -20 -118 -20 -138 0 -48 26 -57 56 -18 28 34
47 84 34 84 -5 0 -12 -11 -16 -25 -8 -34 -27 -32 -20 3 21 105 36 217 31 233
-8 25 -29 24 -54 -2z"/>
<path d="M3228 653 c-21 -24 -38 -59 -38 -75 1 -7 8 0 16 15 9 16 18 27 20 24
3 -3 -4 -54 -15 -113 -25 -130 -26 -163 -6 -170 20 -8 42 11 66 57 21 43 23
49 10 49 -5 0 -12 -11 -15 -25 -4 -14 -11 -25 -17 -25 -6 0 -9 6 -7 13 13 33
41 235 35 250 -8 22 -30 22 -49 0z"/>
</g>
</svg>
